<svg id='Real Estate Update House Sync' width='24' height='24' viewBox='2 2 20 20' xmlns='http://www.w3.org/2000/svg' xmlns:xlink='http://www.w3.org/1999/xlink'><rect width='24' height='24' stroke='none' fill='#000000' opacity='0'/>


<g transform="matrix(0.83 0 0 0.83 12 12)" >
<g style="" >
<g transform="matrix(1 0 0 1 -1.94 -3)" >
<path style="stroke: none; stroke-width: 1; stroke-dasharray: none; stroke-linecap: butt; stroke-dashoffset: 0; stroke-linejoin: miter; stroke-miterlimit: 4; fill: #DEDEDE; fill-rule: nonzero; opacity: 1;" transform=" translate(-10.06, -9)" d="M 5.39 12.65 C 5.5362356015630425 12.418076624773288 5.544262414758868 12.12483918717717 5.410933203484906 11.88526326066927 C 5.277603992210945 11.64568733416137 5.024169903008269 11.497958572682677 4.75 11.5 L 4.33 11.5 C 4.186310080746854 11.501038799976167 4.049118788506524 11.440207473712375 3.9534165355503563 11.333020950401467 C 3.857714282594189 11.22583442709056 3.812753004167578 11.082654874207376 3.83 10.94 C 4.2513826563765384 7.64969351725971 6.604680881276208 4.9328825398697385 9.80121786506316 4.046411217863245 C 12.997754848850112 3.159939895856751 16.414181794104948 4.276676816496222 18.46999999999999 6.879999999999994 C 18.836406492091456 7.197835838216403 19.378070280404753 7.206895311641014 19.754900644165446 6.901490310946074 C 20.131731007926135 6.596085310251135 20.23505529700432 6.064290401554999 20 5.64 C 17.39649914471511 2.3841632174020364 13.079129110488498 1.0316198469484998 9.083335915045167 2.220033326187008 C 5.087542719601835 3.408446805425516 2.211052036723949 6.900560625551144 1.8099999999999952 11.050000000000008 C 1.7799018482201525 11.304233609313753 1.5659884782336613 11.496755642301595 1.31 11.5 L 0.75 11.5 C 0.47762089984866474 11.50160548937662 0.22752382597361764 11.650760240592028 0.09665584166513486 11.889646243694813 C -0.03421214264334793 12.1285322467976 -0.025276108522364504 12.419592091958657 0.11999999999999977 12.65 L 2.12 15.850000000000001 C 2.253757929252576 16.069421620925198 2.4930340573451693 16.202352803198863 2.7499999999999996 16.200000000000003 C 3.0095208425900486 16.201923323091332 3.2515922098051364 16.069540544145582 3.39 15.850000000000003 Z" stroke-linecap="round" />
</g>
<g transform="matrix(1 0 0 1 1.94 3.02)" >
<path style="stroke: none; stroke-width: 1; stroke-dasharray: none; stroke-linecap: butt; stroke-dashoffset: 0; stroke-linejoin: miter; stroke-miterlimit: 4; fill: #DEDEDE; fill-rule: nonzero; opacity: 1;" transform=" translate(-13.94, -15.02)" d="M 23.25 12.5 C 23.522379100151333 12.49839451062338 23.77247617402638 12.349239759407972 23.903344158334864 12.110353756305187 C 24.034212142643348 11.8714677532024 24.025276108522363 11.580407908041343 23.88 11.35 L 21.88 8.149999999999999 C 21.73361371749429 7.944783684360513 21.497076734171337 7.822962470851614 21.244999999999997 7.822962470851614 C 20.99292326582866 7.822962470851614 20.75638628250571 7.944783684360513 20.61 8.149999999999999 L 18.61 11.349999999999998 C 18.463764398436957 11.58192337522671 18.45573758524113 11.875160812822829 18.589066796515095 12.114736739330729 C 18.722396007789055 12.354312665838629 18.975830096991732 12.502041427317321 19.25 12.499999999999998 L 19.67 12.499999999999998 C 19.813689919253147 12.498961200023832 19.950881211493478 12.559792526287623 20.046583464449647 12.666979049598531 C 20.142285717405812 12.774165572909439 20.187246995832425 12.917345125792624 20.17 13.059999999999999 C 19.748617343623465 16.350306482740294 17.39531911872379 19.06711746013027 14.198782134936835 19.953588782136762 C 11.002245151149879 20.840060104143255 7.585818205895039 19.723323183503776 5.529999999999998 17.119999999999997 C 5.163593507908543 16.8021641617836 4.621929719595248 16.79310468835899 4.245099355834558 17.09850968905393 C 3.868268992073868 17.403914689748866 3.7649447029956837 17.935709598445 4 18.36 C 6.596978103758532 21.612265324496367 10.904046308934042 22.96918919792988 14.896248036203538 21.7928174959967 C 18.888449763473034 20.616445794063523 21.771523558721334 17.14082147410601 22.19 13 C 22.220098151779847 12.745766390686248 22.43401152176634 12.553244357698405 22.69 12.55 Z" stroke-linecap="round" />
</g>
<g transform="matrix(1 0 0 1 0.24 -0.25)" >
<path style="stroke: none; stroke-width: 1; stroke-dasharray: none; stroke-linecap: butt; stroke-dashoffset: 0; stroke-linejoin: miter; stroke-miterlimit: 4; fill: #DEDEDE; fill-rule: nonzero; opacity: 1;" transform=" translate(-12.24, -11.75)" d="M 16.57 11.08 L 12.57 7.66 C 12.379653877287756 7.498459255872629 12.100346122712246 7.498459255872628 11.91 7.66 L 7.91 11.08 C 7.750929191598943 11.218892170931067 7.691652402234072 11.44019218455992 7.76 11.64 C 7.834866686569342 11.834034913941181 8.022027824089163 11.961463773529143 8.23 11.96 L 8.370000000000001 11.96 C 8.646142374915398 11.96 8.870000000000001 12.183857625084604 8.870000000000001 12.46 L 8.870000000000001 15.46 C 8.870000000000001 15.736142374915397 9.093857625084604 15.96 9.370000000000001 15.96 L 11 15.96 C 11.1380711874577 15.96 11.25 15.8480711874577 11.25 15.71 L 11.25 14.45 C 11.25 13.897715250169206 11.697715250169207 13.45 12.25 13.45 C 12.802284749830793 13.45 13.25 13.897715250169206 13.25 14.45 L 13.25 15.709999999999999 C 13.25 15.848071187457698 13.3619288125423 15.959999999999999 13.5 15.959999999999999 L 15.11 15.959999999999999 C 15.386142374915396 15.959999999999999 15.61 15.736142374915396 15.61 15.459999999999999 L 15.61 12.459999999999999 C 15.61 12.183857625084602 15.833857625084603 11.959999999999999 16.11 11.959999999999999 L 16.25 11.959999999999999 C 16.45797217591084 11.961463773529141 16.64513331343066 11.834034913941178 16.72 11.639999999999999 C 16.788347597765927 11.440192184559919 16.729070808401055 11.218892170931067 16.57 11.08 Z" stroke-linecap="round" />
</g>
</g>
</g>
</svg>