<svg version="1.2" xmlns="http://www.w3.org/2000/svg" viewBox="0 0 400 400" width="400" height="400">
	<style>
		.s0 { fill: #ffffff;stroke: #000000;stroke-miterlimit:10;stroke-width: 0 } 
	</style>
	<g id="Layer 1">
		<path id="Shape 1" fill-rule="evenodd" class="s0" d="m248.8 221.61c-5.42 0-9.82-4.4-9.82-9.82v-23.99c0-5.43 4.4-9.82 9.82-9.82l68.89-0.34-29.39-29.68c-3.83-3.83-3.83-10.05 0-13.88l16.97-16.97c3.83-3.84 10.05-3.84 13.88 0l75.86 75.44c3.83 3.84 3.6 9.74-0.24 13.58l-76.11 76c-3.83 3.84-10.05 3.84-13.88 0l-16.97-16.97c-3.83-3.83-3.83-10.05 0-13.88l30.28-30.1z"/>
		<g id="Folder 1">
			<path id="Shape 5" fill-rule="evenodd" class="s0" d="m79.42 96.17h53.62c7.18 0 13 5.82 13 13v181.25c0 7.18-5.82 13-13 13h-53.62c-7.18 0-13-5.82-13-13v-181.25c0-7.18 5.82-13 13-13z"/>
			<path id="Shape 5 copy" fill-rule="evenodd" class="s0" d="m209.85 172.98v53.63c0 7.18-5.82 13-13 13h-181.24c-7.18 0-13-5.82-13-13v-53.63c0-7.18 5.82-13 13-13h181.24c7.18 0 13 5.82 13 13z"/>
		</g>
	</g>
</svg>