<svg fill="#DEDEDE" version="1.1" xmlns="http://www.w3.org/2000/svg" xmlns:xlink="http://www.w3.org/1999/xlink" width="24" height="24" viewBox="948,520.5,24,24">
    <path d="M952.08306,539.58179c-1.05388,0 -2.10776,-1.05388 -2.10776,-2.10776v-9.94806c0,-1.05388 1.05388,-2.10776 2.10776,-2.10776h8.55324v-0.43457c0,-0.67608 0.67608,-1.35215 1.35215,-1.35215h4.27917c0.67608,0 1.35215,0.67608 1.35215,1.35215v0.43457h0.29717c1.05388,0 2.10776,1.05388 2.10776,2.10776v9.94806c0,1.05388 -1.05388,2.10776 -2.10776,2.10776zM960,536.73541c2.33915,0 4.23541,-1.89626 4.23541,-4.23541c0,-2.33915 -1.89626,-4.23541 -4.23541,-4.23541c-2.33915,0 -4.23541,1.89626 -4.23541,4.23541c0,2.33915 1.89626,4.23541 4.23541,4.23541z" id="CompoundPath 1" stroke="none"/>
</svg>
