<?xml version="1.0" encoding="utf-8"?>
<svg xmlns="http://www.w3.org/2000/svg" viewBox="4.9412 4.2301 18.579 18.522" width="18.579px" height="18.522px">
  <path id="Vector" d="M 24.023 24.139 L 25.023 24.139 M 21.023 24.139 L 19.023 24.139 L 19.023 21.139 M 22.023 21.139 L 25.023 21.139 L 25.023 18.139 L 24.023 18.139 M 19.023 18.139 L 21.023 18.139 M 9.023 21.139 C 9.023 20.207 9.023 19.741 9.175 19.374 C 9.378 18.883 9.767 18.494 10.257 18.291 C 10.625 18.139 11.091 18.139 12.023 18.139 C 12.955 18.139 13.421 18.139 13.789 18.291 C 14.279 18.494 14.668 18.883 14.871 19.374 C 15.023 19.741 15.023 20.207 15.023 21.139 C 15.023 22.071 15.023 22.537 14.871 22.905 C 14.668 23.395 14.279 23.784 13.789 23.987 C 13.421 24.139 12.955 24.139 12.023 24.139 C 11.091 24.139 10.625 24.139 10.257 23.987 C 9.767 23.784 9.378 23.395 9.175 22.905 C 9.023 22.537 9.023 22.071 9.023 21.139 Z M 19.023 11.139 C 19.023 10.207 19.023 9.741 19.175 9.374 C 19.378 8.883 19.767 8.494 20.257 8.291 C 20.625 8.139 21.091 8.139 22.023 8.139 C 22.955 8.139 23.421 8.139 23.789 8.291 C 24.279 8.494 24.668 8.883 24.871 9.374 C 25.023 9.741 25.023 10.207 25.023 11.139 C 25.023 12.071 25.023 12.537 24.871 12.905 C 24.668 13.395 24.279 13.784 23.789 13.987 C 23.421 14.139 22.955 14.139 22.023 14.139 C 21.091 14.139 20.625 14.139 20.257 13.987 C 19.767 13.784 19.378 13.395 19.175 12.905 C 19.023 12.537 19.023 12.071 19.023 11.139 Z M 9.023 11.139 C 9.023 10.207 9.023 9.741 9.175 9.374 C 9.378 8.883 9.767 8.494 10.257 8.291 C 10.625 8.139 11.091 8.139 12.023 8.139 C 12.955 8.139 13.421 8.139 13.789 8.291 C 14.279 8.494 14.668 8.883 14.871 9.374 C 15.023 9.741 15.023 10.207 15.023 11.139 C 15.023 12.071 15.023 12.537 14.871 12.905 C 14.668 13.395 14.279 13.784 13.789 13.987 C 13.421 14.139 12.955 14.139 12.023 14.139 C 11.091 14.139 10.625 14.139 10.257 13.987 C 9.767 13.784 9.378 13.395 9.175 12.905 C 9.023 12.537 9.023 12.071 9.023 11.139 Z" stroke-linecap="round" stroke-linejoin="round" style="fill: none; stroke-width: 1.5px; stroke: rgb(222, 222, 222);" transform="matrix(1, 0, 0, 1, -2.838839054107668, -2.696897029876709)"/>
  <path id="path-1" d="M 21.127 11.104 C 21.127 10.815 21.127 10.672 21.176 10.559 C 21.237 10.407 21.358 10.286 21.51 10.225 C 21.623 10.176 21.766 10.176 22.055 10.176 C 22.341 10.176 22.487 10.176 22.603 10.225 C 22.752 10.286 22.87 10.407 22.934 10.559 C 22.98 10.672 22.98 10.815 22.98 11.104 C 22.98 11.39 22.98 11.536 22.934 11.646 C 22.87 11.801 22.752 11.919 22.603 11.983 C 22.487 12.029 22.341 12.029 22.055 12.029 C 21.766 12.029 21.623 12.029 21.51 11.983 C 21.358 11.919 21.237 11.801 21.176 11.652 C 21.127 11.536 21.127 11.39 21.127 11.104 Z" stroke-linecap="round" stroke-linejoin="round" style="stroke-width: 1.5px; fill: rgb(222, 222, 222);" transform="matrix(1, 0, 0, 1, -2.838839054107668, -2.696897029876709)"/>
  <path id="path-2" d="M 11.148 11.128 C 11.148 10.839 11.148 10.696 11.197 10.583 C 11.258 10.431 11.379 10.31 11.531 10.249 C 11.644 10.2 11.787 10.2 12.076 10.2 C 12.362 10.2 12.508 10.2 12.624 10.249 C 12.773 10.31 12.891 10.431 12.955 10.583 C 13.001 10.696 13.001 10.839 13.001 11.128 C 13.001 11.414 13.001 11.56 12.955 11.67 C 12.891 11.825 12.773 11.943 12.624 12.007 C 12.508 12.053 12.362 12.053 12.076 12.053 C 11.787 12.053 11.644 12.053 11.531 12.007 C 11.379 11.943 11.258 11.825 11.197 11.676 C 11.148 11.56 11.148 11.414 11.148 11.128 Z" stroke-linecap="round" stroke-linejoin="round" style="stroke-width: 1.5px; fill: rgb(222, 222, 222);" transform="matrix(1, 0, 0, 1, -2.838839054107668, -2.696897029876709)"/>
  <path id="path-3" d="M 11.148 21.132 C 11.148 20.843 11.148 20.7 11.197 20.587 C 11.258 20.435 11.379 20.314 11.531 20.253 C 11.644 20.204 11.787 20.204 12.076 20.204 C 12.362 20.204 12.508 20.204 12.624 20.253 C 12.773 20.314 12.891 20.435 12.955 20.587 C 13.001 20.7 13.001 20.843 13.001 21.132 C 13.001 21.418 13.001 21.564 12.955 21.674 C 12.891 21.829 12.773 21.947 12.624 22.011 C 12.508 22.057 12.362 22.057 12.076 22.057 C 11.787 22.057 11.644 22.057 11.531 22.011 C 11.379 21.947 11.258 21.829 11.197 21.68 C 11.148 21.564 11.148 21.418 11.148 21.132 Z" stroke-linecap="round" stroke-linejoin="round" style="stroke-width: 1.5px; fill: rgb(222, 222, 222);" transform="matrix(1, 0, 0, 1, -2.838839054107668, -2.696897029876709)"/>
  <rect x="7.78" y="6.927" width="18.579" height="18.522" style="fill: none;" transform="matrix(1, 0, 0, 1, -2.838839054107668, -2.696897029876709)"/>
</svg>