<svg version="1.2" xmlns="http://www.w3.org/2000/svg" viewBox="0 0 400 400" width="400" height="400">
	<style>
		.s0 { fill: #FFFFFF;stroke: #000000;stroke-miterlimit:10;stroke-width: 0 } 
		.s1 { fill: #FFFFFF } 
	</style>
	<g id="Layer 1">
		<path id="Shape 1" fill-rule="evenodd" class="s0" d="m248.8 221.61c-5.42 0-9.82-4.4-9.82-9.82v-23.99c0-5.43 4.4-9.82 9.82-9.82l68.89-0.34-29.39-29.68c-3.83-3.83-3.83-10.05 0-13.88l16.97-16.97c3.83-3.84 10.05-3.84 13.88 0l75.86 75.44c3.83 3.84 3.6 9.74-0.24 13.58l-76.11 76c-3.83 3.84-10.05 3.84-13.88 0l-16.97-16.97c-3.83-3.83-3.83-10.05 0-13.88l30.28-30.1z"/>
		<g id="Folder 1">
			<path class="s1" d="m4.58 272.85l18.73 22.17c0 0 6.61 9.35 11.36 2.34 4.76-6.99 33.25-64.75 33.25-64.75 0 0 2.85-4.71 4.85 3.71 2.01 8.42 18.45 49.16 18.45 49.16 0 0 2.49 3.43 5.47 0.9 2.99-2.51 14.96-12.6 14.96-12.6 0 0 4.03-1.28-0.15-9.26-4.19-8-19.54-44.4-19.54-44.4 0 0-2.24-4.66 1.01-7.39 3.24-2.73 7.43-5.86 7.43-5.86 0 0 1.86-3.85 7 0.21 5.13 4.05 19.85 18.95 42.51 24.56 22.67 5.62 42.5 6.38 42.5 6.38 0 0 4.86 0.17 5.54-8.12 0.71-8.25 0.3-19.86 0.3-19.86 0 0 0.47-5.53-4.4-5.69-4.85-0.17-13.08 1.68-23.46-1.52-10.38-3.19-33.84-20.35-33.84-20.35 0 0-3.76-2.95-0.27-5.91 3.49-2.94 27.91-23.54 27.91-23.54 0 0 4.19-3.13 1.66-6.12q-3.77-4.48-3.78-4.48l44.36-37.46-8.43-9.97-44.35 37.44-3.65-3.29c0 0-3.24-2.82-5.98-0.5-2.73 2.28-31.36 26.02-31.36 26.02 0 0-8.07-8.53-14.04-3.49-5.98 5.04-42.35 35.77-42.35 35.77 0 0-1.58 2.18-0.33 6.68 1.23 4.51 3.51 7.69 1.27 9.59-2.24 1.88-13.96 11.78-13.96 11.78 0 0-3.27 3.19-2.86 9.26 0.42 6.04-2.93 12.69-9.4 18.17-6.46 5.47-25.13 20.8-25.13 20.8 0 0-5.47 4.64-1.28 9.62z"/>
			<path class="s1" d="m172.49 120.39c0 0-14.85-17.61-17.45-20.68-2.61-3.09-10.18-5.8-11.11 5.03-1.04 12.47-2.19 29.25-2.19 29.25l12.95 0.43c0 0-0.63-6.88-1.57-10.33-1.17-4.29 0.86-6.4 3.19-3.63 2.32 2.73 6.69 7.87 6.69 7.87z"/>
			<path class="s1" d="m92.32 225.95c0 0 4.12-3.47 7.41-6.24 3.29-2.78 6.47-9.01 3.73-17.26-2.73-8.24 8.04 1.18 8.04 1.18 0 0 5.65 12.96-3.99 21.09-9.68 8.2-13.96 11.45-13.96 11.45z"/>
		</g>
	</g>
</svg>