<?xml version="1.0" encoding="utf-8"?>
<svg fill="rgb(0, 139, 182)" xmlns="http://www.w3.org/2000/svg" viewBox="0.0728 0.0228 10.68 33.521" width="10.68px" height="33.521px">
  <g id="Capa_1" transform="matrix(1, 0, 0, 1, -196.29486083984375, 17.921907424926758)">
    <g transform="matrix(1, 0, 0, 1, 179.052582, -23.189117)">
      <path d="M 22.675 38.811 C 22.669 38.811 22.661 38.81 22.655 38.81 C 22.648 38.81 22.642 38.811 22.635 38.811 C 20.589 38.811 18.93 37.153 18.93 35.106 C 18.93 33.061 20.589 31.403 22.635 31.403 C 22.642 31.403 22.648 31.403 22.655 31.403 C 22.661 31.403 22.669 31.403 22.675 31.403 C 24.72 31.403 26.381 33.061 26.381 35.106 C 26.381 37.152 24.723 38.811 22.675 38.811 Z M 27.988 10.578 C 27.746 14.275 26.056 25.27 26.056 25.27 C 26.056 27.124 24.537 28.626 22.683 28.626 C 22.673 28.626 22.663 28.626 22.654 28.626 C 22.645 28.626 22.634 28.626 22.625 28.626 C 20.772 28.626 19.253 27.122 19.253 25.27 C 19.253 25.27 17.564 14.275 17.322 10.578 C 17.202 8.727 18.62 5.29 22.626 5.29 C 22.636 5.29 22.646 5.291 22.655 5.291 C 22.664 5.291 22.674 5.29 22.684 5.29 C 26.689 5.29 28.109 8.727 27.988 10.578 Z"/>
    </g>
  </g>
</svg>